# xmcd CD database file
#
# Track frame offsets:
#	150
#	14973
#	29131
#	44205
#	63244
#	91702
#	113323
#	124602
#	141998
#	156628
#
# Disc length: 2202 seconds
#
# Revision: 1
# Processed by: cddbd v1.5.2PL0 Copyright (c) Steve Scherf et al.
# Submitted via: CDex 1.70beta2
#
DISCID=9008980a
DTITLE=SJ - Smooth Jazz - D3
DYEAR=1900
DGENRE=Jazz
TTITLE0=In The Mood - Glen Miller
TTITLE1=Song of India - Tommy Dorsey
TTITLE2=Fools Rush In - Tommy Dorsey
TTITLE3=Stardsust - Bunny Berigan Orchestra
TTITLE4=Sing, Sing, Sing - Benny Goodman
TTITLE5=Woodchopper's Ball - Woody Herman
TTITLE6=Ciribiribin - Harry James
TTITLE7=Peanut Vendor - Stan Kenton
TTITLE8=Frenesi - Artie Shaw
TTITLE9=I'm Livin' in a Great Big Way - Ray Noble Orchestra
EXTD=
EXTT0=
EXTT1=
EXTT2=
EXTT3=
EXTT4=
EXTT5=
EXTT6=
EXTT7=
EXTT8=
EXTT9=
PLAYORDER=
